solid ASCII
  facet normal 2.588191e-01 -0.000000e+00 9.659258e-01
    outer loop
      vertex   -1.319479e-01 0.000000e+00 8.711915e-02
      vertex   1.578298e-01 0.000000e+00 9.473435e-03
      vertex   -1.319479e-01 9.000000e-01 8.711915e-02
    endloop
  endfacet
  facet normal 2.588191e-01 0.000000e+00 9.659258e-01
    outer loop
      vertex   -1.319479e-01 9.000000e-01 8.711915e-02
      vertex   1.578298e-01 0.000000e+00 9.473435e-03
      vertex   1.578298e-01 9.000000e-01 9.473435e-03
    endloop
  endfacet
  facet normal -9.659258e-01 0.000000e+00 2.588191e-01
    outer loop
      vertex   -1.578298e-01 0.000000e+00 -9.473435e-03
      vertex   -1.319479e-01 0.000000e+00 8.711915e-02
      vertex   -1.578298e-01 9.000000e-01 -9.473435e-03
    endloop
  endfacet
  facet normal -9.659258e-01 0.000000e+00 2.588191e-01
    outer loop
      vertex   -1.578298e-01 9.000000e-01 -9.473435e-03
      vertex   -1.319479e-01 0.000000e+00 8.711915e-02
      vertex   -1.319479e-01 9.000000e-01 8.711915e-02
    endloop
  endfacet
  facet normal -2.588191e-01 0.000000e+00 -9.659258e-01
    outer loop
      vertex   1.319479e-01 0.000000e+00 -8.711915e-02
      vertex   -1.578298e-01 0.000000e+00 -9.473435e-03
      vertex   1.319479e-01 9.000000e-01 -8.711915e-02
    endloop
  endfacet
  facet normal -2.588191e-01 0.000000e+00 -9.659258e-01
    outer loop
      vertex   1.319479e-01 9.000000e-01 -8.711915e-02
      vertex   -1.578298e-01 0.000000e+00 -9.473435e-03
      vertex   -1.578298e-01 9.000000e-01 -9.473435e-03
    endloop
  endfacet
  facet normal 9.659258e-01 0.000000e+00 -2.588191e-01
    outer loop
      vertex   1.578298e-01 0.000000e+00 9.473435e-03
      vertex   1.319479e-01 0.000000e+00 -8.711915e-02
      vertex   1.578298e-01 9.000000e-01 9.473435e-03
    endloop
  endfacet
  facet normal 9.659258e-01 0.000000e+00 -2.588191e-01
    outer loop
      vertex   1.578298e-01 9.000000e-01 9.473435e-03
      vertex   1.319479e-01 0.000000e+00 -8.711915e-02
      vertex   1.319479e-01 9.000000e-01 -8.711915e-02
    endloop
  endfacet
  facet normal 0.000000e+00 -1.000000e+00 0.000000e+00
    outer loop
      vertex   1.319479e-01 0.000000e+00 -8.711915e-02
      vertex   1.578298e-01 0.000000e+00 9.473435e-03
      vertex   -1.578298e-01 0.000000e+00 -9.473435e-03
    endloop
  endfacet
  facet normal 0.000000e+00 -1.000000e+00 0.000000e+00
    outer loop
      vertex   -1.578298e-01 0.000000e+00 -9.473435e-03
      vertex   1.578298e-01 0.000000e+00 9.473435e-03
      vertex   -1.319479e-01 0.000000e+00 8.711915e-02
    endloop
  endfacet
  facet normal 0.000000e+00 1.000000e+00 -0.000000e+00
    outer loop
      vertex   1.319479e-01 9.000000e-01 -8.711915e-02
      vertex   -1.578298e-01 9.000000e-01 -9.473435e-03
      vertex   1.578298e-01 9.000000e-01 9.473435e-03
    endloop
  endfacet
  facet normal 0.000000e+00 1.000000e+00 0.000000e+00
    outer loop
      vertex   1.578298e-01 9.000000e-01 9.473435e-03
      vertex   -1.578298e-01 9.000000e-01 -9.473435e-03
      vertex   -1.319479e-01 9.000000e-01 8.711915e-02
    endloop
  endfacet
endsolid
